<svg width="243" height="97" viewBox="0 0 243 97" fill="none" xmlns="http://www.w3.org/2000/svg">
<path d="M84.625 5.375L53.75 95H30.875L0.375 5.375H22.125L40.8125 67.75C41.8125 71.125 42.4167 74.1042 42.625 76.6875H43C43.2917 73.8958 43.9375 70.8333 44.9375 67.5L63.5 5.375H84.625ZM103.438 20.875C100.104 20.875 97.375 19.8958 95.25 17.9375C93.125 15.9375 92.0625 13.5 92.0625 10.625C92.0625 7.66667 93.125 5.25 95.25 3.375C97.375 1.5 100.104 0.5625 103.438 0.5625C106.812 0.5625 109.542 1.5 111.625 3.375C113.75 5.25 114.812 7.66667 114.812 10.625C114.812 13.625 113.75 16.0833 111.625 18C109.542 19.9167 106.812 20.875 103.438 20.875ZM113.188 95H93.4375V31H113.188V95ZM171.562 48.8125C169.188 47.5208 166.417 46.875 163.25 46.875C158.958 46.875 155.604 48.4583 153.188 51.625C150.771 54.75 149.562 59.0208 149.562 64.4375V95H129.812V31H149.562V42.875H149.812C152.938 34.2083 158.562 29.875 166.688 29.875C168.771 29.875 170.396 30.125 171.562 30.625V48.8125ZM242.938 95H223.188V86.1875H222.938C218.438 93.1042 211.833 96.5625 203.125 96.5625C195.125 96.5625 188.688 93.75 183.812 88.125C178.938 82.4583 176.5 74.5625 176.5 64.4375C176.5 53.8542 179.188 45.375 184.562 39C189.938 32.625 196.979 29.4375 205.688 29.4375C213.938 29.4375 219.688 32.3958 222.938 38.3125H223.188V0.25H242.938V95ZM223.562 63.875V59.0625C223.562 54.8958 222.354 51.4375 219.938 48.6875C217.521 45.9375 214.375 44.5625 210.5 44.5625C206.125 44.5625 202.708 46.2917 200.25 49.75C197.792 53.1667 196.562 57.875 196.562 63.875C196.562 69.5 197.75 73.8333 200.125 76.875C202.5 79.9167 205.792 81.4375 210 81.4375C214 81.4375 217.25 79.8333 219.75 76.625C222.292 73.4167 223.562 69.1667 223.562 63.875Z" fill="#222222"/>
</svg>
