<svg width="303" height="179" viewBox="0 0 303 179" fill="none" xmlns="http://www.w3.org/2000/svg">
<mask id="path-1-outside-1_64_807" maskUnits="userSpaceOnUse" x="0" y="0" width="303" height="179" fill="black">
<rect fill="white" width="303" height="179"/>
<path fill-rule="evenodd" clip-rule="evenodd" d="M40.4265 137.863C40.8866 138.167 41.5107 138.036 41.8163 137.576C66.2343 100.874 84.875 77.3151 99.1235 63.265C106.3 56.1883 112.043 51.8459 116.54 49.4114C121.028 46.9814 123.647 46.7828 124.961 46.9514C127.026 47.2162 130.508 49.3341 134.312 59.4162C137.866 68.8365 140.234 81.3303 142.772 94.8398L142.87 95.3613L142.87 95.3616C145.263 108.109 147.866 121.967 152.051 132.415C154.184 137.739 157.085 143.143 161.362 147.156C165.99 151.499 172.041 153.994 179.153 153.256C185.708 152.576 192.083 149.258 198.266 144.498C204.546 139.663 211.407 132.733 219.014 123.591C234.127 105.427 253.099 77.41 277.244 36.6351C277.526 36.1594 277.372 35.5393 276.895 35.2586L261.413 26.1369C260.937 25.8569 260.321 26.0211 260.04 26.4958C236.083 66.9518 217.751 93.8916 203.658 110.83C196.558 119.363 190.765 125.074 186.1 128.666C181.337 132.332 178.476 133.226 177.157 133.363C176.395 133.442 175.937 133.359 175.074 132.549C173.858 131.409 172.287 129.084 170.62 124.923C167.264 116.546 164.976 104.649 162.428 91.083L162.284 90.3153C159.891 77.5685 157.246 63.484 153.027 52.3005C148.973 41.5537 141.774 28.9353 127.573 27.1135C120.755 26.2388 113.845 28.1594 107.064 31.8307C100.292 35.4976 93.0249 41.2387 85.106 49.0473C69.39 64.5445 49.8483 89.4529 25.1685 126.549C24.8624 127.01 24.9843 127.637 25.4452 127.942L40.4265 137.863Z"/>
</mask>
<path fill-rule="evenodd" clip-rule="evenodd" d="M40.4265 137.863C40.8866 138.167 41.5107 138.036 41.8163 137.576C66.2343 100.874 84.875 77.3151 99.1235 63.265C106.3 56.1883 112.043 51.8459 116.54 49.4114C121.028 46.9814 123.647 46.7828 124.961 46.9514C127.026 47.2162 130.508 49.3341 134.312 59.4162C137.866 68.8365 140.234 81.3303 142.772 94.8398L142.87 95.3613L142.87 95.3616C145.263 108.109 147.866 121.967 152.051 132.415C154.184 137.739 157.085 143.143 161.362 147.156C165.99 151.499 172.041 153.994 179.153 153.256C185.708 152.576 192.083 149.258 198.266 144.498C204.546 139.663 211.407 132.733 219.014 123.591C234.127 105.427 253.099 77.41 277.244 36.6351C277.526 36.1594 277.372 35.5393 276.895 35.2586L261.413 26.1369C260.937 25.8569 260.321 26.0211 260.04 26.4958C236.083 66.9518 217.751 93.8916 203.658 110.83C196.558 119.363 190.765 125.074 186.1 128.666C181.337 132.332 178.476 133.226 177.157 133.363C176.395 133.442 175.937 133.359 175.074 132.549C173.858 131.409 172.287 129.084 170.62 124.923C167.264 116.546 164.976 104.649 162.428 91.083L162.284 90.3153C159.891 77.5685 157.246 63.484 153.027 52.3005C148.973 41.5537 141.774 28.9353 127.573 27.1135C120.755 26.2388 113.845 28.1594 107.064 31.8307C100.292 35.4976 93.0249 41.2387 85.106 49.0473C69.39 64.5445 49.8483 89.4529 25.1685 126.549C24.8624 127.01 24.9843 127.637 25.4452 127.942L40.4265 137.863Z" fill="#CEDAFF"/>
<path d="M99.1235 63.265L81.5702 45.4638L99.1235 63.265ZM116.54 49.4114L128.443 71.396L128.443 71.396L116.54 49.4114ZM124.961 46.9514L128.142 22.1546L128.142 22.1546L124.961 46.9514ZM134.312 59.4162L157.703 50.5918L157.703 50.5918L134.312 59.4162ZM142.772 94.8398L167.342 90.2256L167.342 90.225L142.772 94.8398ZM142.87 95.3613L118.299 99.9756L118.326 100.12L118.355 100.264L142.87 95.3613ZM142.87 95.3616L167.44 90.7475L167.413 90.6029L167.384 90.4587L142.87 95.3616ZM152.051 132.415L175.258 123.119L175.258 123.119L152.051 132.415ZM161.362 147.156L178.469 128.926L178.469 128.926L161.362 147.156ZM179.153 153.256L176.573 128.39L176.573 128.39L179.153 153.256ZM198.266 144.498L183.015 124.689L183.015 124.689L198.266 144.498ZM219.014 123.591L238.231 139.581L219.014 123.591ZM203.658 110.83L222.875 126.82L222.876 126.82L203.658 110.83ZM186.1 128.666L170.849 108.856L170.849 108.856L186.1 128.666ZM177.157 133.363L179.737 158.229L179.737 158.229L177.157 133.363ZM175.074 132.549L157.966 150.779L157.966 150.779L175.074 132.549ZM170.62 124.923L193.827 115.627L193.827 115.627L170.62 124.923ZM162.428 91.083L137.857 95.6968L137.858 95.6978L162.428 91.083ZM162.284 90.3153L137.713 94.9285L137.713 94.9292L162.284 90.3153ZM153.027 52.3005L129.636 61.1248L129.636 61.1249L153.027 52.3005ZM127.573 27.1135L124.392 51.9103L124.392 51.9103L127.573 27.1135ZM107.064 31.8307L95.1615 9.84616L95.1615 9.84616L107.064 31.8307ZM85.106 49.0473L67.5528 31.2461L67.5528 31.2461L85.106 49.0473ZM261.413 26.1369L248.722 47.6766L261.413 26.1369ZM260.04 26.4958L238.529 13.7573L260.04 26.4958ZM277.244 36.6351L298.756 49.3734L277.244 36.6351ZM276.895 35.2586L289.585 13.7189L276.895 35.2586ZM25.1685 126.549L4.35402 112.702L25.1685 126.549ZM41.8163 137.576L21.002 123.728L41.8163 137.576ZM81.5702 45.4638C65.4941 61.3161 45.7358 86.5517 21.002 123.728L62.6306 151.424C86.7329 115.197 104.256 93.3141 116.677 81.0662L81.5702 45.4638ZM104.637 27.4269C97.3068 31.3955 89.6681 37.4787 81.5702 45.4638L116.677 81.0662C122.932 74.8978 126.78 72.2964 128.443 71.396L104.637 27.4269ZM128.142 22.1546C119.97 21.1063 112.005 23.4378 104.637 27.4269L128.443 71.396C130.051 70.5251 127.324 72.4593 121.78 71.7482L128.142 22.1546ZM157.703 50.5918C153.467 39.3646 145.256 24.35 128.142 22.1546L121.78 71.7482C118.88 71.3762 116.305 70.434 114.189 69.2031C112.151 68.0181 110.871 66.7616 110.217 66.0184C109.08 64.7267 109.593 64.7203 110.921 68.2406L157.703 50.5918ZM167.342 90.225C164.941 77.442 162.199 62.5099 157.703 50.5918L110.921 68.2405C113.533 75.1632 115.527 85.2185 118.201 99.4546L167.342 90.225ZM167.44 90.7471L167.342 90.2256L118.201 99.4541L118.299 99.9756L167.44 90.7471ZM167.384 90.4587L167.384 90.4584L118.355 100.264L118.355 100.264L167.384 90.4587ZM175.258 123.119C172.176 115.424 169.977 104.256 167.44 90.7475L118.299 99.9756C120.55 111.963 123.555 128.51 128.844 141.712L175.258 123.119ZM178.469 128.926C178.339 128.803 177.909 128.353 177.281 127.317C176.652 126.279 175.972 124.901 175.258 123.119L128.844 141.712C131.563 148.5 136.135 157.767 144.254 165.386L178.469 128.926ZM176.573 128.39C176.608 128.386 176.767 128.375 177.021 128.406C177.275 128.436 177.545 128.5 177.805 128.593C178.346 128.788 178.554 129.005 178.469 128.926L144.254 165.386C153.601 174.157 166.663 179.687 181.734 178.123L176.573 128.39ZM183.015 124.689C180.942 126.285 179.326 127.255 178.145 127.815C176.993 128.361 176.507 128.397 176.573 128.39L181.734 178.123C194.82 176.765 205.572 170.424 213.517 164.307L183.015 124.689ZM199.796 107.601C192.82 115.985 187.287 121.4 183.015 124.689L213.517 164.307C221.805 157.927 229.993 149.482 238.231 139.581L199.796 107.601ZM255.733 23.8968C231.817 64.2847 213.639 90.9636 199.796 107.601L238.231 139.581C254.615 119.89 274.381 90.5353 298.756 49.3734L255.733 23.8968ZM248.722 47.6766L264.205 56.7983L289.585 13.7189L274.103 4.59723L248.722 47.6766ZM222.876 126.82C238.239 108.354 257.366 80.076 281.551 39.2343L238.529 13.7573C214.8 53.8276 197.262 79.429 184.44 94.8397L222.876 126.82ZM201.351 148.475C208.025 143.337 215.146 136.109 222.875 126.82L184.44 94.8396C177.97 102.616 173.505 106.812 170.849 108.856L201.351 148.475ZM179.737 158.229C187.585 157.415 194.822 153.501 201.351 148.475L170.849 108.856C169.568 109.843 169.178 109.961 169.636 109.744C169.877 109.63 170.397 109.402 171.179 109.165C171.943 108.933 173.093 108.65 174.577 108.496L179.737 158.229ZM157.966 150.779C159.446 152.168 162.764 155.077 167.838 156.866C173.344 158.808 178.025 158.407 179.737 158.229L174.577 108.496C175.527 108.398 179.598 107.995 184.469 109.713C188.907 111.278 191.565 113.741 192.181 114.319L157.966 150.779ZM147.413 134.22C149.658 139.823 152.898 146.023 157.966 150.779L192.181 114.319C192.985 115.074 193.528 115.72 193.845 116.129C194.171 116.548 194.348 116.833 194.402 116.921C194.496 117.076 194.267 116.724 193.827 115.627L147.413 134.22ZM137.858 95.6978C140.241 108.388 142.942 123.06 147.413 134.22L193.827 115.627C191.586 110.031 189.711 100.91 186.998 86.4682L137.858 95.6978ZM137.713 94.9292L137.857 95.6968L186.999 86.4691L186.854 85.7015L137.713 94.9292ZM129.636 61.1249C132.925 69.8419 135.207 81.5776 137.713 94.9285L186.855 85.7021C184.575 73.5593 181.567 57.126 176.418 43.4761L129.636 61.1249ZM124.392 51.9103C124.479 51.9215 124.474 51.9284 124.413 51.9071C124.387 51.8983 124.362 51.8879 124.339 51.8776C124.317 51.8674 124.306 51.8607 124.307 51.8612C124.308 51.8618 124.326 51.8725 124.361 51.8981C124.397 51.9238 124.452 51.9659 124.527 52.0294C124.676 52.1577 124.899 52.3707 125.185 52.7016C126.521 54.2475 128.079 56.9979 129.636 61.1248L176.418 43.4761C172.096 32.0187 160.246 6.10013 130.754 2.31671L124.392 51.9103ZM118.967 53.8153C120.875 52.7822 122.273 52.2867 123.187 52.0654C124.048 51.857 124.391 51.9102 124.392 51.9103L130.754 2.31671C117.042 0.557742 104.778 4.63945 95.1615 9.84616L118.967 53.8153ZM102.659 66.8485C109.654 59.9508 115.026 55.9491 118.967 53.8153L95.1615 9.84616C85.5574 15.046 76.3953 22.5267 67.5528 31.2461L102.659 66.8485ZM45.9831 140.397C70.3457 103.777 88.7701 80.5443 102.659 66.8484L67.5528 31.2461C50.01 48.5446 29.351 75.1285 4.35402 112.702L45.9831 140.397ZM54.2297 117.019L39.2484 107.098L11.6421 148.786L26.6234 158.707L54.2297 117.019ZM274.103 4.59723C261.533 -2.80856 245.705 1.63967 238.529 13.7573L281.551 39.2343C274.938 50.4026 260.342 54.5223 248.722 47.6766L274.103 4.59723ZM298.756 49.3734C305.972 37.1871 302.165 21.13 289.585 13.7189L264.205 56.7983C252.579 49.9485 249.08 35.1316 255.733 23.8968L298.756 49.3734ZM4.35402 112.702C-3.4926 124.496 -0.526201 140.728 11.6421 148.786L39.2484 107.098C50.4949 114.546 53.2173 129.523 45.9831 140.397L4.35402 112.702ZM21.002 123.728C28.187 112.929 42.9773 109.567 54.2297 117.019L26.6234 158.707C38.7959 166.768 54.8343 163.142 62.6306 151.424L21.002 123.728Z" fill="#3164FF" mask="url(#path-1-outside-1_64_807)"/>
</svg>
