<svg width="269" height="246" viewBox="0 0 269 246" fill="none" xmlns="http://www.w3.org/2000/svg">
<mask id="path-1-outside-1_63_315" maskUnits="userSpaceOnUse" x="-1" y="0" width="270" height="246" fill="black">
<rect fill="white" x="-1" width="270" height="246"/>
<path fill-rule="evenodd" clip-rule="evenodd" d="M66.9088 219.027C54.6976 222.362 41.0214 221.426 25.6888 216.49C25.1631 216.321 24.8771 215.754 25.0508 215.23L32.2823 193.396C32.456 192.872 33.0236 192.589 33.5497 192.757C45.5912 196.604 54.0948 196.611 60.3212 194.91C66.6018 193.195 71.9729 189.359 77.0499 183.046C82.2639 176.562 86.8377 167.868 91.3937 157.188C94.5752 149.73 97.5188 141.883 100.644 133.552C102.029 129.858 103.45 126.07 104.943 122.179C114.32 97.7395 126.113 70.252 147.254 50.8222C169.075 30.768 199.336 20.5429 242.54 26.858C243.086 26.9379 243.47 27.449 243.388 27.9951L239.946 50.7361C239.863 51.2821 239.343 51.656 238.797 51.5765C201.859 46.2027 179.554 55.0917 164.171 69.2292C147.803 84.2721 137.705 106.581 128.284 131.135C126.95 134.612 125.617 138.165 124.276 141.738C121.057 150.319 117.797 159.009 114.389 166.998C109.526 178.397 103.888 189.566 96.5316 198.713C89.0386 208.03 79.481 215.592 66.9088 219.027Z"/>
</mask>
<path fill-rule="evenodd" clip-rule="evenodd" d="M66.9088 219.027C54.6976 222.362 41.0214 221.426 25.6888 216.49C25.1631 216.321 24.8771 215.754 25.0508 215.23L32.2823 193.396C32.456 192.872 33.0236 192.589 33.5497 192.757C45.5912 196.604 54.0948 196.611 60.3212 194.91C66.6018 193.195 71.9729 189.359 77.0499 183.046C82.2639 176.562 86.8377 167.868 91.3937 157.188C94.5752 149.73 97.5188 141.883 100.644 133.552C102.029 129.858 103.45 126.07 104.943 122.179C114.32 97.7395 126.113 70.252 147.254 50.8222C169.075 30.768 199.336 20.5429 242.54 26.858C243.086 26.9379 243.47 27.449 243.388 27.9951L239.946 50.7361C239.863 51.2821 239.343 51.656 238.797 51.5765C201.859 46.2027 179.554 55.0917 164.171 69.2292C147.803 84.2721 137.705 106.581 128.284 131.135C126.95 134.612 125.617 138.165 124.276 141.738C121.057 150.319 117.797 159.009 114.389 166.998C109.526 178.397 103.888 189.566 96.5316 198.713C89.0386 208.03 79.481 215.592 66.9088 219.027Z" fill="#FFE9AF"/>
<path d="M66.9088 219.027L73.4965 243.143L73.4965 243.143L66.9088 219.027ZM60.3212 194.91L53.7335 170.794L53.7334 170.794L60.3212 194.91ZM77.0499 183.046L57.5683 167.378L57.5683 167.378L77.0499 183.046ZM91.3937 157.188L68.3986 147.379L68.3986 147.379L91.3937 157.188ZM100.644 133.552L77.2363 124.772L77.2363 124.772L100.644 133.552ZM104.943 122.179L128.284 131.135L128.284 131.135L104.943 122.179ZM147.254 50.8222L164.171 69.2292L164.171 69.2292L147.254 50.8222ZM164.171 69.2292L181.088 87.6362L181.088 87.6362L164.171 69.2292ZM128.284 131.135L104.943 122.179L104.943 122.179L128.284 131.135ZM124.276 141.738L147.683 150.52L147.683 150.52L124.276 141.738ZM114.389 166.998L137.384 176.807L137.384 176.807L114.389 166.998ZM96.5316 198.713L77.0499 183.046L77.0499 183.046L96.5316 198.713ZM242.54 26.858L246.156 2.12085L242.54 26.858ZM243.388 27.9951L268.106 31.7365L243.388 27.9951ZM32.2823 193.396L8.5502 185.536L32.2823 193.396ZM33.5497 192.757L25.9409 216.571L33.5497 192.757ZM239.946 50.7361L215.227 46.9946L239.946 50.7361ZM238.797 51.5765L235.198 76.3161L238.797 51.5765ZM25.6888 216.49L33.3497 192.693L25.6888 216.49ZM25.0508 215.23L1.31865 207.369L25.0508 215.23ZM18.028 240.287C36.5363 246.246 55.3315 248.105 73.4965 243.143L60.3212 194.91C54.0637 196.62 45.5065 196.606 33.3497 192.693L18.028 240.287ZM8.5502 185.536L1.31865 207.369L48.7829 223.09L56.0145 201.257L8.5502 185.536ZM53.7334 170.794C53.4152 170.881 50.0046 171.77 41.1585 168.943L25.9409 216.571C41.1778 221.439 54.7744 222.341 66.9089 219.027L53.7334 170.794ZM57.5683 167.378C56.1667 169.121 55.1839 169.948 54.6579 170.322C54.2026 170.645 53.9471 170.735 53.7335 170.794L66.9088 219.027C79.4678 215.596 89.0277 208.044 96.5316 198.713L57.5683 167.378ZM68.3986 147.379C64.147 157.345 60.6377 163.562 57.5683 167.378L96.5316 198.713C103.89 189.563 109.528 178.391 114.389 166.998L68.3986 147.379ZM77.2363 124.772C74.0711 133.21 71.3234 140.522 68.3986 147.379L114.389 166.998C117.827 158.938 120.967 150.555 124.051 142.332L77.2363 124.772ZM81.6023 113.223C80.0702 117.216 78.617 121.09 77.2363 124.772L124.051 142.332C125.441 138.626 126.83 134.925 128.284 131.135L81.6023 113.223ZM130.337 32.4152C104.43 56.2256 90.9437 88.8773 81.6023 113.223L128.284 131.135C137.697 106.602 147.796 84.2784 164.171 69.2292L130.337 32.4152ZM246.156 2.12085C196.758 -5.09972 158.57 6.46775 130.337 32.4152L164.171 69.2292C179.579 55.0682 201.915 46.1854 238.924 51.5951L246.156 2.12085ZM264.664 54.4775L268.106 31.7365L218.669 24.2537L215.227 46.9946L264.664 54.4775ZM181.088 87.6362C190.09 79.3632 204.49 71.8487 235.198 76.3161L242.396 26.837C199.227 20.5566 169.018 30.8203 147.254 50.8222L181.088 87.6362ZM151.625 140.091C161.099 115.398 169.502 98.2848 181.088 87.6362L147.254 50.8222C126.105 70.2593 114.311 97.7641 104.943 122.179L151.625 140.091ZM147.683 150.52C149.029 146.931 150.33 143.465 151.625 140.091L104.943 122.179C103.57 125.758 102.204 129.4 100.869 132.957L147.683 150.52ZM137.384 176.807C141.049 168.216 144.505 158.99 147.683 150.52L100.869 132.956C97.6084 141.648 94.545 149.801 91.3937 157.188L137.384 176.807ZM116.013 214.38C125.51 202.572 132.212 188.932 137.384 176.807L91.3937 157.188C86.8398 167.863 82.2658 176.56 77.0499 183.046L116.013 214.38ZM73.4965 243.143C92.3676 237.988 106.11 226.694 116.013 214.38L77.0499 183.046C71.9667 189.366 66.5944 193.197 60.3211 194.91L73.4965 243.143ZM238.924 51.5951C225.945 49.698 216.65 37.5931 218.669 24.2537L268.106 31.7365C270.29 17.3049 260.228 4.17774 246.156 2.12085L238.924 51.5951ZM56.0145 201.257C51.804 213.969 38.2388 220.5 25.9409 216.571L41.1585 168.943C27.8084 164.678 13.108 171.775 8.5502 185.536L56.0145 201.257ZM215.227 46.9946C217.264 33.5354 229.748 24.9969 242.396 26.837L235.198 76.3161C248.939 78.3152 262.461 69.0289 264.664 54.4775L215.227 46.9946ZM33.3497 192.693C46.1149 196.802 52.9531 210.5 48.7829 223.09L1.31865 207.369C-3.19882 221.009 4.21138 235.84 18.028 240.287L33.3497 192.693Z" fill="#FFB800" mask="url(#path-1-outside-1_63_315)"/>
</svg>
