<svg width="249" height="204" viewBox="0 0 249 204" fill="none" xmlns="http://www.w3.org/2000/svg">
<mask id="path-1-outside-1_64_758" maskUnits="userSpaceOnUse" x="0" y="0" width="249" height="204" fill="black">
<rect fill="white" width="249" height="204"/>
<path fill-rule="evenodd" clip-rule="evenodd" d="M217.695 102.01C218.615 108.092 219.535 113.826 220.456 119.21H222.485C221.548 113.745 220.611 107.912 219.673 101.711C215.696 75.4119 211.713 55.6395 207.717 42.4256C205.721 35.8261 203.705 30.8037 201.653 27.4113C199.647 24.0935 197.4 22 194.836 22C192.271 22 190.024 24.0935 188.018 27.4113C185.966 30.8037 183.95 35.8261 181.954 42.4256C177.958 55.6395 173.975 75.4119 169.998 101.711C166.025 127.986 162.059 147.643 158.106 160.716C156.127 167.26 154.168 172.095 152.245 175.275C150.277 178.529 148.548 179.721 147.139 179.721C145.729 179.721 144 178.529 142.032 175.275C140.109 172.095 138.15 167.26 136.171 160.716C132.218 147.643 128.252 127.986 124.279 101.711C120.302 75.4119 116.319 55.6395 112.323 42.4256C110.327 35.8261 108.311 30.8037 106.259 27.4113C104.253 24.0935 102.006 22 99.4414 22C96.8765 22 94.6303 24.0935 92.6236 27.4113C90.5718 30.8037 88.5558 35.8261 86.56 42.4256C82.5639 55.6395 78.5807 75.4119 74.6041 101.711C70.6312 127.986 66.6649 147.643 62.7114 160.716C60.7325 167.26 58.7738 172.095 56.8509 175.275C54.8828 178.529 53.1543 179.721 51.7444 179.721C50.3345 179.721 48.606 178.529 46.6379 175.275C44.715 172.095 42.7563 167.26 40.7773 160.716C36.8239 147.643 32.8575 127.986 28.8846 101.711C28.598 99.8151 28.3113 97.9531 28.0245 96.1251H26C26.3023 98.0484 26.6047 100.01 26.9071 102.01C30.8837 128.309 34.8669 148.081 38.8629 161.295C40.8587 167.895 42.8747 172.917 44.9266 176.31C46.9333 179.627 49.1795 181.721 51.7444 181.721C54.3093 181.721 56.5555 179.627 58.5622 176.31C60.614 172.917 62.63 167.895 64.6258 161.295C68.6219 148.081 72.6051 128.309 76.5817 102.01C80.5546 75.7354 84.5209 56.0775 88.4744 43.0046C90.4533 36.4607 92.412 31.6256 94.335 28.4463C96.303 25.1924 98.0315 24 99.4414 24C100.851 24 102.58 25.1924 104.548 28.4463C106.471 31.6256 108.43 36.4607 110.409 43.0046C114.362 56.0775 118.328 75.7354 122.301 102.01C126.278 128.309 130.261 148.081 134.257 161.295C136.253 167.895 138.269 172.917 140.321 176.31C142.327 179.627 144.574 181.721 147.139 181.721C149.703 181.721 151.95 179.627 153.956 176.31C156.008 172.917 158.024 167.895 160.02 161.295C164.016 148.081 167.999 128.309 171.976 102.01C175.949 75.7354 179.915 56.0775 183.868 43.0046C185.847 36.4607 187.806 31.6256 189.729 28.4463C191.697 25.1924 193.426 24 194.836 24C196.245 24 197.974 25.1924 199.942 28.4463C201.865 31.6256 203.824 36.4607 205.803 43.0046C209.756 56.0775 213.722 75.7354 217.695 102.01Z"/>
</mask>
<path fill-rule="evenodd" clip-rule="evenodd" d="M217.695 102.01C218.615 108.092 219.535 113.826 220.456 119.21H222.485C221.548 113.745 220.611 107.912 219.673 101.711C215.696 75.4119 211.713 55.6395 207.717 42.4256C205.721 35.8261 203.705 30.8037 201.653 27.4113C199.647 24.0935 197.4 22 194.836 22C192.271 22 190.024 24.0935 188.018 27.4113C185.966 30.8037 183.95 35.8261 181.954 42.4256C177.958 55.6395 173.975 75.4119 169.998 101.711C166.025 127.986 162.059 147.643 158.106 160.716C156.127 167.26 154.168 172.095 152.245 175.275C150.277 178.529 148.548 179.721 147.139 179.721C145.729 179.721 144 178.529 142.032 175.275C140.109 172.095 138.15 167.26 136.171 160.716C132.218 147.643 128.252 127.986 124.279 101.711C120.302 75.4119 116.319 55.6395 112.323 42.4256C110.327 35.8261 108.311 30.8037 106.259 27.4113C104.253 24.0935 102.006 22 99.4414 22C96.8765 22 94.6303 24.0935 92.6236 27.4113C90.5718 30.8037 88.5558 35.8261 86.56 42.4256C82.5639 55.6395 78.5807 75.4119 74.6041 101.711C70.6312 127.986 66.6649 147.643 62.7114 160.716C60.7325 167.26 58.7738 172.095 56.8509 175.275C54.8828 178.529 53.1543 179.721 51.7444 179.721C50.3345 179.721 48.606 178.529 46.6379 175.275C44.715 172.095 42.7563 167.26 40.7773 160.716C36.8239 147.643 32.8575 127.986 28.8846 101.711C28.598 99.8151 28.3113 97.9531 28.0245 96.1251H26C26.3023 98.0484 26.6047 100.01 26.9071 102.01C30.8837 128.309 34.8669 148.081 38.8629 161.295C40.8587 167.895 42.8747 172.917 44.9266 176.31C46.9333 179.627 49.1795 181.721 51.7444 181.721C54.3093 181.721 56.5555 179.627 58.5622 176.31C60.614 172.917 62.63 167.895 64.6258 161.295C68.6219 148.081 72.6051 128.309 76.5817 102.01C80.5546 75.7354 84.5209 56.0775 88.4744 43.0046C90.4533 36.4607 92.412 31.6256 94.335 28.4463C96.303 25.1924 98.0315 24 99.4414 24C100.851 24 102.58 25.1924 104.548 28.4463C106.471 31.6256 108.43 36.4607 110.409 43.0046C114.362 56.0775 118.328 75.7354 122.301 102.01C126.278 128.309 130.261 148.081 134.257 161.295C136.253 167.895 138.269 172.917 140.321 176.31C142.327 179.627 144.574 181.721 147.139 181.721C149.703 181.721 151.95 179.627 153.956 176.31C156.008 172.917 158.024 167.895 160.02 161.295C164.016 148.081 167.999 128.309 171.976 102.01C175.949 75.7354 179.915 56.0775 183.868 43.0046C185.847 36.4607 187.806 31.6256 189.729 28.4463C191.697 25.1924 193.426 24 194.836 24C196.245 24 197.974 25.1924 199.942 28.4463C201.865 31.6256 203.824 36.4607 205.803 43.0046C209.756 56.0775 213.722 75.7354 217.695 102.01Z" fill="#4C75F2"/>
<path d="M220.456 119.21L198.77 122.917L201.898 141.21H220.456V119.21ZM217.695 102.01L239.448 98.7208L239.448 98.7208L217.695 102.01ZM222.485 119.21V141.21H248.578L244.168 115.492L222.485 119.21ZM219.673 101.711L197.92 105L197.92 105L219.673 101.711ZM207.717 42.4256L228.775 36.0574L228.775 36.0573L207.717 42.4256ZM201.653 27.4113L182.829 38.7969L182.829 38.797L201.653 27.4113ZM188.018 27.4113L169.193 16.0256L169.193 16.0256L188.018 27.4113ZM181.954 42.4256L160.896 36.0573L160.896 36.0574L181.954 42.4256ZM169.998 101.711L148.246 98.4218L148.246 98.4218L169.998 101.711ZM158.106 160.716L179.164 167.085L179.164 167.085L158.106 160.716ZM152.245 175.275L133.42 163.889L133.42 163.889L152.245 175.275ZM142.032 175.275L160.857 163.889L160.857 163.889L142.032 175.275ZM136.171 160.716L115.113 167.085L115.113 167.085L136.171 160.716ZM124.279 101.711L102.526 105L102.526 105L124.279 101.711ZM112.323 42.4256L91.2647 48.7939L91.2647 48.794L112.323 42.4256ZM106.259 27.4113L87.4346 38.7969L87.4346 38.797L106.259 27.4113ZM92.6236 27.4113L111.448 38.797L111.448 38.7968L92.6236 27.4113ZM86.56 42.4256L65.5018 36.0573L65.5018 36.0574L86.56 42.4256ZM74.6041 101.711L96.3569 105L96.3569 105L74.6041 101.711ZM62.7114 160.716L41.6533 154.348L41.6533 154.348L62.7114 160.716ZM56.8509 175.275L75.6755 186.66L75.6755 186.66L56.8509 175.275ZM46.6379 175.275L65.4626 163.889L65.4625 163.889L46.6379 175.275ZM40.7773 160.716L19.7192 167.085L19.7192 167.085L40.7773 160.716ZM28.8846 101.711L50.6374 98.4218L50.6374 98.4218L28.8846 101.711ZM28.0245 96.1251L49.7588 92.7159L46.8426 74.1251H28.0245V96.1251ZM26 96.1251V74.1251H0.2716L4.26687 99.5414L26 96.1251ZM26.9071 102.01L48.6598 98.7208L48.6598 98.7208L26.9071 102.01ZM38.8629 161.295L17.8048 167.664L17.8048 167.664L38.8629 161.295ZM44.9266 176.31L63.7512 164.924L63.7512 164.924L44.9266 176.31ZM58.5622 176.31L39.7376 164.924L39.7375 164.924L58.5622 176.31ZM64.6258 161.295L85.684 167.664L85.684 167.664L64.6258 161.295ZM76.5817 102.01L98.3344 105.299L98.3344 105.299L76.5817 102.01ZM88.4744 43.0046L67.4162 36.6363L67.4162 36.6363L88.4744 43.0046ZM94.335 28.4463L75.5104 17.0606L75.5103 17.0607L94.335 28.4463ZM104.548 28.4463L123.373 17.0607L123.372 17.0606L104.548 28.4463ZM110.409 43.0046L131.467 36.6363L131.467 36.6363L110.409 43.0046ZM122.301 102.01L144.054 98.7208L144.054 98.7208L122.301 102.01ZM134.257 161.295L155.315 154.927L155.315 154.927L134.257 161.295ZM140.321 176.31L159.145 164.924L159.145 164.924L140.321 176.31ZM153.956 176.31L135.132 164.924L135.132 164.924L153.956 176.31ZM160.02 161.295L181.078 167.664L181.078 167.664L160.02 161.295ZM171.976 102.01L150.223 98.7208L150.223 98.7208L171.976 102.01ZM183.868 43.0046L204.927 49.3729L204.927 49.3728L183.868 43.0046ZM189.729 28.4463L170.905 17.0606L170.904 17.0607L189.729 28.4463ZM199.942 28.4463L181.117 39.8319L181.117 39.832L199.942 28.4463ZM205.803 43.0046L226.861 36.6363L226.861 36.6363L205.803 43.0046ZM242.141 115.502C241.247 110.274 240.349 104.681 239.448 98.7208L195.943 105.299C196.881 111.504 197.823 117.378 198.77 122.917L242.141 115.502ZM222.485 97.2097H220.456V141.21H222.485V97.2097ZM197.92 105C198.877 111.327 199.837 117.303 200.801 122.927L244.168 115.492C243.259 110.187 242.344 104.498 241.426 98.4218L197.92 105ZM186.659 48.7939C190.186 60.457 193.984 78.97 197.92 105L241.426 98.4218C237.408 71.8538 233.24 50.8221 228.775 36.0574L186.659 48.7939ZM182.829 38.797C183.463 39.8452 184.848 42.8067 186.659 48.7939L228.775 36.0573C226.594 28.8455 223.948 21.7621 220.478 16.0255L182.829 38.797ZM194.836 44C189.687 44 186.094 41.7905 184.423 40.4069C182.949 39.1859 182.516 38.2798 182.829 38.7969L220.478 16.0256C218.064 12.0341 210.123 0 194.836 0V44ZM206.842 38.7969C207.155 38.2798 206.722 39.186 205.248 40.407C203.577 41.7905 199.985 44 194.836 44V0C179.548 0 171.607 12.034 169.193 16.0256L206.842 38.7969ZM203.012 48.7939C204.823 42.8069 206.208 39.8452 206.842 38.7969L169.193 16.0256C165.724 21.7621 163.077 28.8454 160.896 36.0573L203.012 48.7939ZM191.751 105C195.687 78.97 199.485 60.457 203.012 48.7939L160.896 36.0574C156.431 50.8221 152.263 71.8539 148.246 98.4218L191.751 105ZM179.164 167.085C183.586 152.461 187.737 131.543 191.751 105L148.246 98.4218C144.313 124.428 140.532 142.826 137.047 154.348L179.164 167.085ZM171.069 186.66C174.411 181.136 177 174.239 179.164 167.085L137.047 154.348C135.253 160.281 133.925 163.054 133.42 163.889L171.069 186.66ZM147.139 201.721C161.23 201.721 168.654 190.654 171.07 186.66L133.42 163.889C133.178 164.289 133.759 163.169 135.482 161.748C137.305 160.244 141.306 157.721 147.139 157.721V201.721ZM123.207 186.66C125.623 190.654 133.047 201.721 147.139 201.721V157.721C152.971 157.721 156.972 160.244 158.795 161.748C160.518 163.169 161.098 164.289 160.857 163.889L123.207 186.66ZM115.113 167.085C117.277 174.239 119.866 181.136 123.207 186.66L160.857 163.889C160.352 163.054 159.024 160.281 157.23 154.348L115.113 167.085ZM102.526 105C106.54 131.543 110.691 152.461 115.113 167.085L157.23 154.348C153.745 142.826 149.964 124.428 146.031 98.4218L102.526 105ZM91.2647 48.794C94.7918 60.457 98.59 78.9699 102.526 105L146.031 98.4218C142.014 71.8539 137.846 50.8221 133.381 36.0573L91.2647 48.794ZM87.4346 38.797C88.0686 39.8452 89.4541 42.8067 91.2647 48.7939L133.381 36.0573C131.2 28.8455 128.553 21.7621 125.084 16.0255L87.4346 38.797ZM99.4414 44C94.2924 44 90.7003 41.7905 89.0293 40.4069C87.5546 39.1859 87.1218 38.2798 87.4346 38.7969L125.084 16.0256C122.67 12.0341 114.729 0 99.4414 0V44ZM111.448 38.7968C111.761 38.2798 111.328 39.186 109.854 40.407C108.183 41.7905 104.59 44 99.4414 44V0C84.1543 0 76.2132 12.034 73.799 16.0257L111.448 38.7968ZM107.618 48.7939C109.429 42.8068 110.814 39.8452 111.448 38.797L73.799 16.0256C70.3294 21.7621 67.6828 28.8455 65.5018 36.0573L107.618 48.7939ZM96.3569 105C100.293 78.97 104.091 60.457 107.618 48.7939L65.5018 36.0574C61.0368 50.8221 56.8687 71.8539 52.8514 98.4218L96.3569 105ZM83.7696 167.085C88.1921 152.461 92.3433 131.543 96.3569 105L52.8514 98.4218C48.9191 124.428 45.1377 142.826 41.6533 154.348L83.7696 167.085ZM75.6755 186.66C79.0166 181.136 81.6059 174.239 83.7696 167.085L41.6533 154.348C39.8591 160.281 38.5309 163.054 38.0262 163.889L75.6755 186.66ZM51.7444 201.721C65.8363 201.721 73.2597 190.654 75.6755 186.66L38.0262 163.889C37.7844 164.289 38.3651 163.169 40.0881 161.748C41.9111 160.244 45.9119 157.721 51.7444 157.721V201.721ZM27.8133 186.66C30.229 190.654 37.6525 201.721 51.7444 201.721V157.721C57.5768 157.721 61.5777 160.244 63.4007 161.748C65.1237 163.169 65.7043 164.289 65.4626 163.889L27.8133 186.66ZM19.7192 167.085C21.8829 174.239 24.4722 181.136 27.8133 186.66L65.4625 163.889C64.9578 163.054 63.6297 160.281 61.8354 154.348L19.7192 167.085ZM7.13189 105C11.1454 131.543 15.2967 152.461 19.7192 167.085L61.8354 154.348C58.351 142.826 54.5696 124.428 50.6374 98.4218L7.13189 105ZM6.29027 99.5343C6.57051 101.321 6.85105 103.143 7.13189 105L50.6374 98.4218C50.3449 96.4873 50.052 94.5854 49.7588 92.7159L6.29027 99.5343ZM28.0245 74.1251H26V118.125H28.0245V74.1251ZM48.6598 98.7208C48.3513 96.6801 48.0424 94.6761 47.7331 92.7088L4.26687 99.5414C4.56229 101.421 4.85813 103.34 5.15437 105.299L48.6598 98.7208ZM59.9211 154.927C56.394 143.264 52.5958 124.751 48.6598 98.7208L5.15436 105.299C9.17162 131.867 13.3397 152.899 17.8048 167.664L59.9211 154.927ZM63.7512 164.924C63.1172 163.876 61.7317 160.914 59.9211 154.927L17.8048 167.664C19.9858 174.875 22.6323 181.959 26.102 187.695L63.7512 164.924ZM51.7444 159.721C56.8934 159.721 60.4855 161.93 62.1565 163.314C63.6311 164.535 64.064 165.441 63.7512 164.924L26.102 187.695C28.5162 191.687 36.4573 203.721 51.7444 203.721V159.721ZM39.7375 164.924C39.4248 165.441 39.8576 164.535 41.3323 163.314C43.0032 161.93 46.5954 159.721 51.7444 159.721V203.721C67.0315 203.721 74.9726 191.687 77.3868 187.695L39.7375 164.924ZM43.5677 154.927C41.7571 160.914 40.3716 163.876 39.7376 164.924L77.3868 187.695C80.8564 181.959 83.503 174.875 85.684 167.664L43.5677 154.927ZM54.8289 98.7208C50.893 124.751 47.0948 143.264 43.5677 154.927L85.684 167.664C90.149 152.899 94.3171 131.867 98.3344 105.299L54.8289 98.7208ZM67.4162 36.6363C62.9938 51.2602 58.8425 72.1775 54.8289 98.7208L98.3344 105.299C102.267 79.2932 106.048 60.8948 109.532 49.3729L67.4162 36.6363ZM75.5103 17.0607C72.1692 22.5848 69.58 29.4814 67.4162 36.6363L109.532 49.3729C111.327 43.4399 112.655 40.6664 113.16 39.8319L75.5103 17.0607ZM99.4414 2C85.3496 2 77.9261 13.0665 75.5104 17.0606L113.16 39.832C113.401 39.4323 112.821 40.5519 111.098 41.9734C109.275 43.4773 105.274 46 99.4414 46V2ZM123.372 17.0606C120.957 13.0665 113.533 2 99.4414 2V46C93.609 46 89.6082 43.4773 87.7852 41.9734C86.0622 40.5519 85.4815 39.4323 85.7233 39.832L123.372 17.0606ZM131.467 36.6363C129.303 29.4814 126.714 22.5848 123.373 17.0607L85.7232 39.8319C86.228 40.6664 87.5562 43.4399 89.3504 49.3729L131.467 36.6363ZM144.054 98.7208C140.04 72.1775 135.889 51.2602 131.467 36.6363L89.3504 49.3728C92.8348 60.8948 96.6162 79.2932 100.548 105.299L144.054 98.7208ZM155.315 154.927C151.788 143.264 147.99 124.751 144.054 98.7208L100.548 105.299C104.566 131.867 108.734 152.899 113.199 167.664L155.315 154.927ZM159.145 164.924C158.511 163.876 157.126 160.914 155.315 154.927L113.199 167.663C115.38 174.875 118.026 181.959 121.496 187.695L159.145 164.924ZM147.139 159.721C152.287 159.721 155.88 161.93 157.551 163.314C159.025 164.535 159.458 165.441 159.145 164.924L121.496 187.695C123.91 191.687 131.851 203.721 147.139 203.721V159.721ZM135.132 164.924C134.819 165.441 135.252 164.535 136.726 163.314C138.397 161.93 141.99 159.721 147.139 159.721V203.721C162.426 203.721 170.367 191.687 172.781 187.695L135.132 164.924ZM138.962 154.927C137.151 160.914 135.766 163.876 135.132 164.924L172.781 187.695C176.251 181.959 178.897 174.875 181.078 167.664L138.962 154.927ZM150.223 98.7208C146.287 124.751 142.489 143.264 138.962 154.927L181.078 167.664C185.543 152.899 189.711 131.867 193.729 105.299L150.223 98.7208ZM162.81 36.6363C158.388 51.2602 154.237 72.1775 150.223 98.7208L193.729 105.299C197.661 79.2932 201.442 60.8948 204.927 49.3729L162.81 36.6363ZM170.904 17.0607C167.563 22.5847 164.974 29.4814 162.81 36.6364L204.927 49.3728C206.721 43.44 208.049 40.6664 208.554 39.8319L170.904 17.0607ZM194.836 2C180.744 2 173.32 13.0665 170.905 17.0606L208.554 39.832C208.795 39.4323 208.215 40.5519 206.492 41.9734C204.669 43.4773 200.668 46 194.836 46V2ZM218.767 17.0607C216.351 13.0665 208.927 2 194.836 2V46C189.003 46 185.002 43.4773 183.179 41.9733C181.456 40.5519 180.876 39.4322 181.117 39.8319L218.767 17.0607ZM226.861 36.6363C224.697 29.4815 222.108 22.5847 218.767 17.0606L181.117 39.832C181.622 40.6665 182.95 43.4399 184.745 49.3729L226.861 36.6363ZM239.448 98.7208C235.435 72.1775 231.283 51.2602 226.861 36.6363L184.745 49.3728C188.229 60.8948 192.01 79.2932 195.943 105.299L239.448 98.7208Z" fill="#02AA4F" mask="url(#path-1-outside-1_64_758)"/>
<path fill-rule="evenodd" clip-rule="evenodd" d="M217.695 102.01C218.615 108.092 219.535 113.826 220.456 119.21H222.485C221.548 113.745 220.611 107.912 219.673 101.711C215.696 75.4119 211.713 55.6395 207.717 42.4256C205.721 35.8261 203.705 30.8037 201.653 27.4113C199.647 24.0935 197.4 22 194.836 22C192.271 22 190.024 24.0935 188.018 27.4113C185.966 30.8037 183.95 35.8261 181.954 42.4256C177.958 55.6395 173.975 75.4119 169.998 101.711C166.025 127.986 162.059 147.643 158.106 160.716C156.127 167.26 154.168 172.095 152.245 175.275C150.277 178.529 148.548 179.721 147.139 179.721C145.729 179.721 144 178.529 142.032 175.275C140.109 172.095 138.15 167.26 136.171 160.716C132.218 147.643 128.252 127.986 124.279 101.711C120.302 75.4119 116.319 55.6395 112.323 42.4256C110.327 35.8261 108.311 30.8037 106.259 27.4113C104.253 24.0935 102.006 22 99.4414 22C96.8765 22 94.6303 24.0935 92.6236 27.4113C90.5718 30.8037 88.5558 35.8261 86.56 42.4256C82.5639 55.6395 78.5807 75.4119 74.6041 101.711C70.6312 127.986 66.6649 147.643 62.7114 160.716C60.7325 167.26 58.7738 172.095 56.8509 175.275C54.8828 178.529 53.1543 179.721 51.7444 179.721C50.3345 179.721 48.606 178.529 46.6379 175.275C44.715 172.095 42.7563 167.26 40.7773 160.716C36.8239 147.643 32.8575 127.986 28.8846 101.711C28.598 99.8151 28.3113 97.9531 28.0245 96.1251H26C26.3023 98.0484 26.6047 100.01 26.9071 102.01C30.8837 128.309 34.8669 148.081 38.8629 161.295C40.8587 167.895 42.8747 172.917 44.9266 176.31C46.9333 179.627 49.1795 181.721 51.7444 181.721C54.3093 181.721 56.5555 179.627 58.5622 176.31C60.614 172.917 62.63 167.895 64.6258 161.295C68.6219 148.081 72.6051 128.309 76.5817 102.01C80.5546 75.7354 84.5209 56.0775 88.4744 43.0046C90.4533 36.4607 92.412 31.6256 94.335 28.4463C96.303 25.1924 98.0315 24 99.4414 24C100.851 24 102.58 25.1924 104.548 28.4463C106.471 31.6256 108.43 36.4607 110.409 43.0046C114.362 56.0775 118.328 75.7354 122.301 102.01C126.278 128.309 130.261 148.081 134.257 161.295C136.253 167.895 138.269 172.917 140.321 176.31C142.327 179.627 144.574 181.721 147.139 181.721C149.703 181.721 151.95 179.627 153.956 176.31C156.008 172.917 158.024 167.895 160.02 161.295C164.016 148.081 167.999 128.309 171.976 102.01C175.949 75.7354 179.915 56.0775 183.868 43.0046C185.847 36.4607 187.806 31.6256 189.729 28.4463C191.697 25.1924 193.426 24 194.836 24C196.245 24 197.974 25.1924 199.942 28.4463C201.865 31.6256 203.824 36.4607 205.803 43.0046C209.756 56.0775 213.722 75.7354 217.695 102.01Z" fill="#4C75F2"/>
<path d="M220.456 119.21L212.077 120.642L213.286 127.71H220.456V119.21ZM217.695 102.01L226.1 100.739L226.1 100.739L217.695 102.01ZM222.485 119.21V127.71H232.566L230.863 117.773L222.485 119.21ZM219.673 101.711L211.268 102.982L211.268 102.982L219.673 101.711ZM207.717 42.4256L215.853 39.9652L215.853 39.9652L207.717 42.4256ZM201.653 27.4113L194.38 31.8103L194.38 31.8103L201.653 27.4113ZM188.018 27.4113L180.745 23.0123L180.745 23.0123L188.018 27.4113ZM181.954 42.4256L173.818 39.9652L173.818 39.9652L181.954 42.4256ZM169.998 101.711L161.594 100.44L161.594 100.44L169.998 101.711ZM158.106 160.716L166.242 163.177L166.242 163.177L158.106 160.716ZM152.245 175.275L144.972 170.876L144.972 170.876L152.245 175.275ZM142.032 175.275L149.305 170.876L149.305 170.876L142.032 175.275ZM136.171 160.716L128.035 163.177L128.035 163.177L136.171 160.716ZM124.279 101.711L115.874 102.982L115.874 102.982L124.279 101.711ZM112.323 42.4256L104.187 44.8861L104.187 44.8861L112.323 42.4256ZM106.259 27.4113L98.9861 31.8103L98.9861 31.8103L106.259 27.4113ZM92.6236 27.4113L99.8968 31.8103L99.8968 31.8102L92.6236 27.4113ZM86.56 42.4256L78.4239 39.9652L78.4239 39.9652L86.56 42.4256ZM74.6041 101.711L83.0086 102.982L83.0086 102.982L74.6041 101.711ZM62.7114 160.716L54.5754 158.256L54.5753 158.256L62.7114 160.716ZM56.8509 175.275L64.124 179.674L64.124 179.674L56.8509 175.275ZM46.6379 175.275L53.9111 170.876L53.9111 170.876L46.6379 175.275ZM40.7773 160.716L32.6412 163.177L32.6412 163.177L40.7773 160.716ZM28.8846 101.711L37.2891 100.44L37.2891 100.44L28.8846 101.711ZM28.0245 96.1251L36.4218 94.8079L35.2952 87.6251H28.0245V96.1251ZM26 96.1251V87.6251H16.0595L17.6031 97.4451L26 96.1251ZM26.9071 102.01L35.3116 100.739L35.3116 100.739L26.9071 102.01ZM38.8629 161.295L30.7268 163.756L30.7268 163.756L38.8629 161.295ZM44.9266 176.31L52.1997 171.911L52.1997 171.911L44.9266 176.31ZM58.5622 176.31L51.289 171.911L51.289 171.911L58.5622 176.31ZM64.6258 161.295L72.7619 163.756L72.7619 163.756L64.6258 161.295ZM76.5817 102.01L84.9861 103.281L84.9861 103.281L76.5817 102.01ZM88.4744 43.0046L80.3383 40.5441L80.3383 40.5441L88.4744 43.0046ZM94.335 28.4463L87.0618 24.0473L87.0618 24.0473L94.335 28.4463ZM104.548 28.4463L111.821 24.0473L111.821 24.0473L104.548 28.4463ZM110.409 43.0046L118.545 40.5441L118.545 40.5441L110.409 43.0046ZM122.301 102.01L130.706 100.739L130.706 100.739L122.301 102.01ZM134.257 161.295L142.393 158.835L142.393 158.835L134.257 161.295ZM140.321 176.31L147.594 171.911L147.594 171.911L140.321 176.31ZM153.956 176.31L146.683 171.911L146.683 171.911L153.956 176.31ZM160.02 161.295L168.156 163.756L168.156 163.756L160.02 161.295ZM171.976 102.01L163.571 100.739L163.571 100.739L171.976 102.01ZM183.868 43.0046L192.005 45.4651L192.005 45.465L183.868 43.0046ZM189.729 28.4463L182.456 24.0473L182.456 24.0473L189.729 28.4463ZM199.942 28.4463L192.669 32.8453L192.669 32.8453L199.942 28.4463ZM205.803 43.0046L213.939 40.5441L213.939 40.5441L205.803 43.0046ZM228.834 117.777C227.924 112.453 227.012 106.774 226.1 100.739L209.291 103.281C210.218 109.411 211.146 115.198 212.077 120.642L228.834 117.777ZM222.485 110.71H220.456V127.71H222.485V110.71ZM211.268 102.982C212.213 109.231 213.16 115.12 214.107 120.646L230.863 117.773C229.936 112.37 229.008 106.593 228.077 100.44L211.268 102.982ZM199.581 44.8861C203.396 57.5008 207.308 76.7866 211.268 102.982L228.077 100.44C224.085 74.0372 220.03 53.7783 215.853 39.9652L199.581 44.8861ZM194.38 31.8103C195.884 34.297 197.657 38.5232 199.581 44.8861L215.853 39.9652C213.786 33.1291 211.526 27.3103 208.926 23.0122L194.38 31.8103ZM194.836 30.5C194.288 30.5 193.813 30.3823 193.465 30.2389C193.14 30.105 192.999 29.9805 193.033 30.0086C193.07 30.039 193.224 30.1764 193.477 30.4917C193.728 30.8036 194.032 31.2347 194.38 31.8103L208.927 23.0123C206.762 19.4342 202.316 13.5 194.836 13.5V30.5ZM195.291 31.8103C195.639 31.2347 195.943 30.8036 196.194 30.4917C196.447 30.1764 196.601 30.039 196.638 30.0086C196.672 29.9806 196.532 30.105 196.206 30.2389C195.858 30.3823 195.383 30.5 194.836 30.5V13.5C187.355 13.5 182.909 19.4341 180.745 23.0123L195.291 31.8103ZM190.09 44.8861C192.014 38.5232 193.787 34.297 195.291 31.8103L180.745 23.0123C178.145 27.3103 175.885 33.129 173.818 39.9652L190.09 44.8861ZM178.403 102.982C182.364 76.7866 186.275 57.5008 190.09 44.8861L173.818 39.9652C169.641 53.7783 165.586 74.0372 161.594 100.44L178.403 102.982ZM166.242 163.177C170.376 149.505 174.414 129.36 178.403 102.982L161.594 100.44C157.637 126.611 153.742 145.782 149.969 158.256L166.242 163.177ZM159.518 179.674C161.989 175.588 164.191 169.957 166.242 163.177L149.969 158.256C148.062 164.564 146.347 168.602 144.972 170.876L159.518 179.674ZM147.139 188.221C153.448 188.221 157.377 183.213 159.518 179.674L144.972 170.876C144.642 171.422 144.383 171.779 144.208 171.994C144.03 172.214 143.979 172.239 144.073 172.161C144.253 172.013 145.318 171.221 147.139 171.221V188.221ZM134.759 179.674C136.9 183.214 140.829 188.221 147.139 188.221V171.221C148.959 171.221 150.024 172.013 150.204 172.161C150.298 172.239 150.247 172.214 150.069 171.994C149.894 171.778 149.635 171.422 149.305 170.876L134.759 179.674ZM128.035 163.177C130.086 169.957 132.288 175.588 134.759 179.674L149.305 170.876C147.93 168.602 146.215 164.564 144.308 158.256L128.035 163.177ZM115.874 102.982C119.863 129.36 123.901 149.505 128.035 163.177L144.308 158.256C140.535 145.782 136.64 126.611 132.683 100.44L115.874 102.982ZM104.187 44.8861C108.002 57.5008 111.913 76.7866 115.874 102.982L132.683 100.44C128.691 74.0372 124.636 53.7783 120.459 39.9652L104.187 44.8861ZM98.9861 31.8103C100.49 34.297 102.263 38.5232 104.187 44.8861L120.459 39.9652C118.392 33.1291 116.132 27.3103 113.532 23.0122L98.9861 31.8103ZM99.4414 30.5C98.8937 30.5 98.419 30.3823 98.0706 30.2389C97.7454 30.105 97.605 29.9805 97.6388 30.0086C97.6755 30.039 97.8298 30.1764 98.0833 30.4917C98.334 30.8036 98.638 31.2347 98.9861 31.8103L113.532 23.0123C111.368 19.4342 106.922 13.5 99.4414 13.5V30.5ZM99.8968 31.8102C100.245 31.2347 100.549 30.8036 100.8 30.4917C101.053 30.1764 101.207 30.039 101.244 30.0086C101.278 29.9806 101.137 30.105 100.812 30.2389C100.464 30.3823 99.9891 30.5 99.4414 30.5V13.5C91.9611 13.5 87.5146 19.4341 85.3505 23.0123L99.8968 31.8102ZM94.6961 44.8861C96.6203 38.5232 98.3927 34.297 99.8968 31.8103L85.3505 23.0122C82.7509 27.3103 80.4912 33.1291 78.4239 39.9652L94.6961 44.8861ZM83.0086 102.982C86.9695 76.7866 90.8812 57.5008 94.6961 44.8861L78.4239 39.9652C74.2466 53.7783 70.192 74.0372 66.1997 100.44L83.0086 102.982ZM70.8475 163.177C74.9822 149.505 79.02 129.36 83.0086 102.982L66.1997 100.44C62.2425 126.611 58.3476 145.782 54.5754 158.256L70.8475 163.177ZM64.124 179.674C66.5949 175.588 68.7972 169.957 70.8475 163.177L54.5753 158.256C52.6678 164.564 50.9527 168.602 49.5777 170.876L64.124 179.674ZM51.7444 188.221C58.0541 188.221 61.983 183.214 64.124 179.674L49.5777 170.876C49.2474 171.422 48.9887 171.778 48.8139 171.994C48.6362 172.214 48.5846 172.239 48.6791 172.161C48.8592 172.013 49.9235 171.221 51.7444 171.221V188.221ZM39.3648 179.674C41.5058 183.214 45.4346 188.221 51.7444 188.221V171.221C53.5653 171.221 54.6296 172.013 54.8096 172.161C54.9042 172.239 54.8526 172.214 54.6749 171.994C54.5 171.778 54.2414 171.422 53.9111 170.876L39.3648 179.674ZM32.6412 163.177C34.6916 169.957 36.8939 175.588 39.3648 179.674L53.9111 170.876C52.5361 168.602 50.821 164.564 48.9134 158.256L32.6412 163.177ZM20.4802 102.982C24.4688 129.36 28.5066 149.505 32.6412 163.177L48.9134 158.256C45.1412 145.782 41.2463 126.611 37.2891 100.44L20.4802 102.982ZM19.6272 97.4423C19.9114 99.2543 20.1957 101.101 20.4802 102.982L37.2891 100.44C37.0002 98.5294 36.7111 96.652 36.4218 94.8079L19.6272 97.4423ZM28.0245 87.6251H26V104.625H28.0245V87.6251ZM35.3116 100.739C35.0068 98.7234 34.7019 96.7455 34.3969 94.8052L17.6031 97.4451C17.9028 99.3514 18.2026 101.297 18.5026 103.281L35.3116 100.739ZM46.999 158.835C43.1842 146.22 39.2724 126.934 35.3116 100.739L18.5026 103.281C22.4949 129.684 26.5496 149.943 30.7268 163.756L46.999 158.835ZM52.1997 171.911C50.6957 169.424 48.9233 165.198 46.999 158.835L30.7268 163.756C32.7942 170.592 35.0538 176.411 37.6534 180.709L52.1997 171.911ZM51.7444 173.221C52.2921 173.221 52.7668 173.339 53.1152 173.482C53.4404 173.616 53.5808 173.74 53.547 173.712C53.5102 173.682 53.356 173.545 53.1025 173.229C52.8518 172.917 52.5478 172.486 52.1997 171.911L37.6534 180.709C39.8176 184.287 44.2641 190.221 51.7444 190.221V173.221ZM51.289 171.911C50.9409 172.486 50.637 172.917 50.3863 173.229C50.1327 173.545 49.9785 173.682 49.9418 173.712C49.9079 173.74 50.0483 173.616 50.3736 173.482C50.7219 173.339 51.1967 173.221 51.7444 173.221V190.221C59.2247 190.221 63.6712 184.287 65.8353 180.709L51.289 171.911ZM56.4897 158.835C54.5655 165.198 52.7931 169.424 51.289 171.911L65.8353 180.709C68.4349 176.411 70.6946 170.592 72.7619 163.756L56.4897 158.835ZM68.1772 100.739C64.2163 126.934 60.3046 146.22 56.4897 158.835L72.7619 163.756C76.9392 149.943 80.9938 129.684 84.9861 103.281L68.1772 100.739ZM80.3383 40.5441C76.2036 54.2163 72.1658 74.3607 68.1772 100.739L84.9861 103.281C88.9433 77.11 92.8382 57.9387 96.6105 45.465L80.3383 40.5441ZM87.0618 24.0473C84.5909 28.1326 82.3886 33.7642 80.3383 40.5441L96.6105 45.4651C98.518 39.1572 100.233 35.1186 101.608 32.8453L87.0618 24.0473ZM99.4414 15.5C93.1317 15.5 89.2029 20.5074 87.0618 24.0473L101.608 32.8453C101.938 32.2993 102.197 31.9425 102.372 31.7265C102.55 31.5069 102.601 31.4817 102.507 31.5597C102.327 31.7082 101.262 32.5 99.4414 32.5V15.5ZM111.821 24.0473C109.68 20.5074 105.751 15.5 99.4414 15.5V32.5C97.6206 32.5 96.5563 31.7082 96.3762 31.5597C96.2816 31.4817 96.3332 31.5069 96.511 31.7265C96.6858 31.9425 96.9445 32.2993 97.2748 32.8453L111.821 24.0473ZM118.545 40.5441C116.494 33.7641 114.292 28.1326 111.821 24.0473L97.2747 32.8453C98.6497 35.1186 100.365 39.1572 102.272 45.4651L118.545 40.5441ZM130.706 100.739C126.717 74.3607 122.679 54.2163 118.545 40.5441L102.272 45.465C106.045 57.9387 109.94 77.11 113.897 103.281L130.706 100.739ZM142.393 158.835C138.578 146.22 134.667 126.934 130.706 100.739L113.897 103.281C117.889 129.684 121.944 149.943 126.121 163.756L142.393 158.835ZM147.594 171.911C146.09 169.424 144.317 165.198 142.393 158.835L126.121 163.756C128.188 170.592 130.448 176.411 133.048 180.709L147.594 171.911ZM147.139 173.221C147.686 173.221 148.161 173.339 148.509 173.482C148.835 173.616 148.975 173.74 148.941 173.712C148.904 173.682 148.75 173.545 148.497 173.229C148.246 172.917 147.942 172.486 147.594 171.911L133.048 180.709C135.212 184.287 139.658 190.221 147.139 190.221V173.221ZM146.683 171.911C146.335 172.486 146.031 172.917 145.78 173.229C145.527 173.545 145.373 173.682 145.336 173.712C145.302 173.74 145.442 173.616 145.768 173.482C146.116 173.339 146.591 173.221 147.139 173.221V190.221C154.619 190.221 159.065 184.287 161.229 180.709L146.683 171.911ZM151.884 158.835C149.96 165.198 148.187 169.424 146.683 171.911L161.229 180.709C163.829 176.411 166.089 170.592 168.156 163.756L151.884 158.835ZM163.571 100.739C159.61 126.934 155.699 146.22 151.884 158.835L168.156 163.756C172.333 149.943 176.388 129.684 180.38 103.281L163.571 100.739ZM175.732 40.5441C171.598 54.2162 167.56 74.3607 163.571 100.739L180.38 103.281C184.337 77.11 188.232 57.9387 192.005 45.4651L175.732 40.5441ZM182.456 24.0473C179.985 28.1325 177.783 33.7641 175.732 40.5441L192.005 45.465C193.912 39.1572 195.627 35.1187 197.002 32.8453L182.456 24.0473ZM194.836 15.5C188.526 15.5 184.597 20.5074 182.456 24.0473L197.002 32.8453C197.333 32.2993 197.591 31.9425 197.766 31.7265C197.944 31.5069 197.995 31.4817 197.901 31.5597C197.721 31.7082 196.656 32.5 194.836 32.5V15.5ZM207.215 24.0473C205.074 20.5074 201.145 15.5 194.836 15.5V32.5C193.015 32.5 191.95 31.7082 191.77 31.5597C191.676 31.4817 191.727 31.5068 191.905 31.7264C192.08 31.9424 192.339 32.2992 192.669 32.8453L207.215 24.0473ZM213.939 40.5441C211.888 33.7642 209.686 28.1325 207.215 24.0473L192.669 32.8453C194.044 35.1187 195.759 39.1572 197.667 45.4651L213.939 40.5441ZM226.1 100.739C222.111 74.3607 218.073 54.2163 213.939 40.5441L197.667 45.465C201.439 57.9387 205.334 77.11 209.291 103.281L226.1 100.739Z" fill="#9AFFC9"/>
</svg>
