<svg width="257" height="225" viewBox="0 0 257 225" fill="none" xmlns="http://www.w3.org/2000/svg">
<mask id="path-1-outside-1_64_623" maskUnits="userSpaceOnUse" x="0" y="0" width="257" height="225" fill="black">
<rect fill="white" width="257" height="225"/>
<path fill-rule="evenodd" clip-rule="evenodd" d="M46.368 115.071C46.8674 115.307 47.4689 115.082 47.7062 114.583C68.2317 71.4331 86.5819 55.5555 100.232 51.9318C112.765 48.6046 126.561 54.5754 141.971 71.4376C157.07 87.9594 170.854 112.035 182.339 136.521C193.507 160.331 202.122 183.698 207.412 199.152C207.591 199.674 208.157 199.948 208.68 199.77L230.451 192.353C230.974 192.175 231.255 191.613 231.076 191.09C225.62 175.148 216.67 150.843 204.973 125.905C193.132 100.659 178.074 73.8841 160.425 54.5724C143.088 35.6012 120.231 20.7564 93.8171 27.7687C68.7872 34.4137 46.1967 59.5338 25.0975 103.913C24.8603 104.411 25.0705 105.015 25.5699 105.251L46.368 115.071Z"/>
</mask>
<path fill-rule="evenodd" clip-rule="evenodd" d="M46.368 115.071C46.8674 115.307 47.4689 115.082 47.7062 114.583C68.2317 71.4331 86.5819 55.5555 100.232 51.9318C112.765 48.6046 126.561 54.5754 141.971 71.4376C157.07 87.9594 170.854 112.035 182.339 136.521C193.507 160.331 202.122 183.698 207.412 199.152C207.591 199.674 208.157 199.948 208.68 199.77L230.451 192.353C230.974 192.175 231.255 191.613 231.076 191.09C225.62 175.148 216.67 150.843 204.973 125.905C193.132 100.659 178.074 73.8841 160.425 54.5724C143.088 35.6012 120.231 20.7564 93.8171 27.7687C68.7872 34.4137 46.1967 59.5338 25.0975 103.913C24.8603 104.411 25.0705 105.015 25.5699 105.251L46.368 115.071Z" fill="#D2B7FF"/>
<path d="M100.232 51.9318L93.8171 27.7687L93.8171 27.7687L100.232 51.9318ZM141.971 71.4376L123.517 88.3028L123.517 88.3028L141.971 71.4376ZM182.339 136.521L159.705 147.137L159.705 147.137L182.339 136.521ZM204.973 125.905L182.339 136.521L182.339 136.521L204.973 125.905ZM160.425 54.5724L178.88 37.7072L178.88 37.7072L160.425 54.5724ZM93.8171 27.7687L87.4024 3.60574L87.4024 3.60574L93.8171 27.7687ZM230.451 192.353L238.513 216.017L230.451 192.353ZM231.076 191.09L207.423 199.185L231.076 191.09ZM25.0975 103.913L2.51931 93.1783L25.0975 103.913ZM25.5699 105.251L14.8956 127.858L25.5699 105.251ZM207.412 199.152L231.064 191.055L207.412 199.152ZM208.68 199.77L200.617 176.106L208.68 199.77ZM47.7062 114.583L70.2821 125.322L47.7062 114.583ZM46.368 115.071L57.0424 92.4648L46.368 115.071ZM93.8171 27.7687C68.7825 34.4149 46.2045 59.5404 25.1302 103.844L70.2821 125.322C90.2589 83.3258 104.381 76.6961 106.647 76.0948L93.8171 27.7687ZM160.425 54.5724C142.976 35.4791 120.134 20.7822 93.8171 27.7687L106.647 76.0948C106.812 76.0508 106.942 76.0334 107.194 76.0607C107.49 76.0925 108.264 76.2248 109.598 76.8367C112.464 78.1515 117.149 81.3349 123.517 88.3028L160.425 54.5724ZM204.973 125.905C193.133 100.662 178.075 73.8854 160.425 54.5724L123.517 88.3028C136.065 102.033 148.576 123.409 159.705 147.137L204.973 125.905ZM231.064 191.055C225.609 175.12 216.664 150.83 204.973 125.905L159.705 147.137C170.35 169.831 178.634 192.275 183.759 207.249L231.064 191.055ZM222.388 168.688L200.617 176.106L216.742 223.434L238.513 216.017L222.388 168.688ZM182.339 136.521C193.513 160.343 202.132 183.725 207.423 199.185L254.729 182.995C249.108 166.571 239.828 141.343 227.607 115.289L182.339 136.521ZM141.971 71.4376C157.071 87.9605 170.856 112.038 182.339 136.521L227.607 115.289C215.408 89.2804 199.077 59.8077 178.88 37.7072L141.971 71.4376ZM100.232 51.9318C112.705 48.6205 126.491 54.4996 141.971 71.4376L178.88 37.7072C159.684 16.7029 127.758 -7.1077 87.4024 3.60574L100.232 51.9318ZM47.6756 114.647C68.233 71.4078 86.5976 55.5514 100.232 51.9318L87.4024 3.60574C50.9769 13.2759 24.1604 47.6597 2.51931 93.1783L47.6756 114.647ZM57.0424 92.4648L36.2443 82.6444L14.8956 127.858L35.6937 137.678L57.0424 92.4648ZM238.513 216.017C251.895 211.458 259.459 196.815 254.729 182.995L207.423 199.185C203.051 186.41 210.052 172.891 222.388 168.688L238.513 216.017ZM2.51931 93.1783C-3.55817 105.961 1.67943 121.617 14.8956 127.858L36.2443 82.6444C48.4616 88.4132 53.2788 102.862 47.6756 114.647L2.51931 93.1783ZM183.759 207.249C188.461 220.984 203.327 228.005 216.742 223.434L200.617 176.106C212.987 171.892 226.72 178.365 231.064 191.055L183.759 207.249ZM25.1302 103.844C30.6092 92.3257 44.6592 86.6178 57.0424 92.4648L35.6937 137.678C49.0756 143.997 64.3286 137.838 70.2821 125.322L25.1302 103.844Z" fill="#6821FF" mask="url(#path-1-outside-1_64_623)"/>
</svg>
