<svg width="294" height="201" viewBox="0 0 294 201" fill="none" xmlns="http://www.w3.org/2000/svg">
<mask id="path-1-outside-1_64_828" maskUnits="userSpaceOnUse" x="0" y="0" width="294" height="201" fill="black">
<rect fill="white" width="294" height="201"/>
<path fill-rule="evenodd" clip-rule="evenodd" d="M47.1981 179.954C47.7213 180.132 48.2946 179.835 48.4721 179.312C75.2645 100.37 93.4922 72.1494 119.964 60.0062C133.748 53.6834 151.211 51.0427 176.552 50.271C191.778 49.8073 208.776 50.0141 228.661 50.2559L228.662 50.2559C241.947 50.4175 256.521 50.5948 272.716 50.5983C273.268 50.5984 273.717 50.1502 273.717 49.5977L273.695 21.5977C273.695 21.0456 273.246 20.5984 272.694 20.5982C257.502 20.5944 243.286 20.4251 230.062 20.2676C209.501 20.0227 191.336 19.8063 175.623 20.2849C149.316 21.086 126.876 23.8228 107.444 32.737C67.7533 50.9438 46.3463 92.1907 20.0537 169.685C19.8763 170.208 20.1527 170.786 20.6756 170.964L47.1981 179.954Z"/>
</mask>
<path fill-rule="evenodd" clip-rule="evenodd" d="M47.1981 179.954C47.7213 180.132 48.2946 179.835 48.4721 179.312C75.2645 100.37 93.4922 72.1494 119.964 60.0062C133.748 53.6834 151.211 51.0427 176.552 50.271C191.778 49.8073 208.776 50.0141 228.661 50.2559L228.662 50.2559C241.947 50.4175 256.521 50.5948 272.716 50.5983C273.268 50.5984 273.717 50.1502 273.717 49.5977L273.695 21.5977C273.695 21.0456 273.246 20.5984 272.694 20.5982C257.502 20.5944 243.286 20.4251 230.062 20.2676C209.501 20.0227 191.336 19.8063 175.623 20.2849C149.316 21.086 126.876 23.8228 107.444 32.737C67.7533 50.9438 46.3463 92.1907 20.0537 169.685C19.8763 170.208 20.1527 170.786 20.6756 170.964L47.1981 179.954Z" fill="#C3F4FF"/>
<path d="M119.964 60.0062L128.303 78.1848L128.303 78.1848L119.964 60.0062ZM176.552 50.271L175.943 30.2802L175.943 30.2802L176.552 50.271ZM228.661 50.2559L229.161 30.2622L229.033 30.2589L228.905 30.2574L228.661 50.2559ZM228.662 50.2559L228.162 70.2497L228.29 70.2529L228.419 70.2544L228.662 50.2559ZM230.062 20.2676L230.3 0.268993L230.062 20.2676ZM175.623 20.2849L176.231 40.2756L176.231 40.2756L175.623 20.2849ZM107.444 32.737L99.1047 14.5584L99.1047 14.5584L107.444 32.737ZM20.0537 169.685L38.9932 176.111L20.0537 169.685ZM20.6756 170.964L27.0965 152.022L20.6756 170.964ZM272.716 50.5983L272.72 30.5983L272.716 50.5983ZM273.717 49.5977L253.717 49.6132L273.717 49.5977ZM273.695 21.5977L293.695 21.5823L273.695 21.5977ZM48.4721 179.312L29.5331 172.885L29.5331 172.885L48.4721 179.312ZM47.1981 179.954L53.619 161.013L47.1981 179.954ZM111.625 41.8276C76.3081 58.0282 55.9731 94.9803 29.5331 172.885L67.4111 185.74C94.5558 105.759 110.676 86.2705 128.303 78.1848L111.625 41.8276ZM175.943 30.2802C149.968 31.0713 129.181 33.7742 111.625 41.8276L128.303 78.1848C138.314 73.5926 152.453 71.0141 177.161 70.2617L175.943 30.2802ZM228.905 30.2574C209.141 30.017 191.682 29.801 175.943 30.2802L177.161 70.2617C191.874 69.8137 208.41 70.0111 228.418 70.2544L228.905 30.2574ZM229.162 30.2622L229.161 30.2622L228.162 70.2497L228.162 70.2497L229.162 30.2622ZM272.72 30.5983C256.66 30.5948 242.198 30.4191 228.905 30.2574L228.419 70.2544C241.696 70.4159 256.381 70.5947 272.712 70.5983L272.72 30.5983ZM253.695 21.6131L253.717 49.6132L293.717 49.5823L293.695 21.5823L253.695 21.6131ZM229.824 40.2662C243.037 40.4235 257.364 40.5944 272.689 40.5982L272.699 0.598244C257.64 0.594421 243.536 0.426632 230.3 0.268993L229.824 40.2662ZM176.231 40.2756C191.433 39.8126 209.134 40.0197 229.824 40.2662L230.3 0.268993C209.868 0.025634 191.239 -0.199976 175.014 0.294127L176.231 40.2756ZM115.782 50.9157C131.451 43.7283 150.576 41.0569 176.231 40.2756L175.014 0.294127C148.056 1.11506 122.302 3.91725 99.1047 14.5584L115.782 50.9157ZM38.9932 176.111C65.6144 97.6486 84.9121 65.0765 115.782 50.9157L99.1047 14.5584C50.5944 36.811 27.0783 86.7329 1.1141 163.259L38.9932 176.111ZM53.619 161.013L27.0965 152.022L14.2548 189.905L40.7772 198.896L53.619 161.013ZM1.1141 163.259C-2.51562 173.957 2.98437 186.084 14.2548 189.905L27.0965 152.022C37.3211 155.488 42.2682 166.458 38.9932 176.111L1.1141 163.259ZM272.712 70.5983C284.294 70.6008 293.726 61.2119 293.717 49.5823L253.717 49.6132C253.709 39.0886 262.243 30.596 272.72 30.5983L272.712 70.5983ZM293.695 21.5823C293.686 9.96951 284.266 0.601181 272.699 0.598244L272.689 40.5982C262.227 40.5956 253.703 32.1218 253.695 21.6131L293.695 21.5823ZM29.5331 172.885C32.7617 163.372 43.2677 157.504 53.619 161.013L40.7772 198.896C52.1749 202.759 63.8274 196.299 67.4111 185.74L29.5331 172.885Z" fill="#1CADFF" mask="url(#path-1-outside-1_64_828)"/>
</svg>
