<svg width="314" height="257" viewBox="0 0 314 257" fill="none" xmlns="http://www.w3.org/2000/svg">
<g filter="url(#filter0_d_64_780)">
<mask id="path-1-outside-1_64_780" maskUnits="userSpaceOnUse" x="4" y="0" width="306" height="249" fill="black">
<rect fill="white" x="4" width="306" height="249"/>
<path fill-rule="evenodd" clip-rule="evenodd" d="M280.559 133.919C285.828 128.645 285.825 120.097 280.551 114.828L194.601 28.9501C189.327 23.6802 180.779 23.6838 175.509 28.9581C170.239 34.2324 170.243 42.7801 175.517 48.0499L238.411 110.891L30 110.978L30.0113 137.978L238.422 137.891L175.581 200.785C170.311 206.059 170.315 214.607 175.589 219.877C180.863 225.147 189.411 225.143 194.681 219.869L280.559 133.919Z"/>
</mask>
<path fill-rule="evenodd" clip-rule="evenodd" d="M280.559 133.919C285.828 128.645 285.825 120.097 280.551 114.828L194.601 28.9501C189.327 23.6802 180.779 23.6838 175.509 28.9581C170.239 34.2324 170.243 42.7801 175.517 48.0499L238.411 110.891L30 110.978L30.0113 137.978L238.422 137.891L175.581 200.785C170.311 206.059 170.315 214.607 175.589 219.877C180.863 225.147 189.411 225.143 194.681 219.869L280.559 133.919Z" fill="#FADFBE"/>
<path d="M280.551 114.828L262.88 132.513L262.88 132.513L280.551 114.828ZM280.559 133.919L298.244 151.59L298.244 151.59L280.559 133.919ZM194.601 28.9501L176.931 46.6351L176.931 46.6351L194.601 28.9501ZM175.509 28.9581L157.824 11.2878L157.824 11.2878L175.509 28.9581ZM175.517 48.0499L193.187 30.3649L193.187 30.3649L175.517 48.0499ZM238.411 110.891L238.422 135.891L298.777 135.866L256.081 93.206L238.411 110.891ZM30 110.978L29.9895 85.9785L4.98952 85.989L5 110.989L30 110.978ZM30.0113 137.978L5.01132 137.989L5.0218 162.989L30.0218 162.978L30.0113 137.978ZM238.422 137.891L256.107 155.561L298.767 112.866L238.412 112.891L238.422 137.891ZM175.581 200.785L157.896 183.115L157.896 183.115L175.581 200.785ZM194.681 219.869L212.366 237.539L212.366 237.539L194.681 219.869ZM262.88 132.513C258.387 128.023 258.384 120.742 262.873 116.249L298.244 151.59C313.272 136.548 313.262 112.171 298.221 97.1424L262.88 132.513ZM176.931 46.6351L262.88 132.513L298.221 97.1424L212.271 11.265L176.931 46.6351ZM193.194 46.6283C188.705 51.1212 181.424 51.1243 176.931 46.6351L212.271 11.265C197.23 -3.76394 172.853 -3.75365 157.824 11.2878L193.194 46.6283ZM193.187 30.3649C197.68 34.854 197.683 42.1354 193.194 46.6283L157.824 11.2878C142.795 26.3293 142.805 50.7061 157.847 65.735L193.187 30.3649ZM256.081 93.206L193.187 30.3649L157.847 65.735L220.741 128.576L256.081 93.206ZM30.0105 135.978L238.422 135.891L238.401 85.8911L29.9895 85.9785L30.0105 135.978ZM55.0113 137.968L55 110.968L5 110.989L5.01132 137.989L55.0113 137.968ZM238.412 112.891L30.0008 112.978L30.0218 162.978L238.433 162.891L238.412 112.891ZM193.266 218.455L256.107 155.561L220.737 120.221L157.896 183.115L193.266 218.455ZM193.259 202.192C197.752 206.681 197.755 213.962 193.266 218.455L157.896 183.115C142.867 198.156 142.877 222.533 157.919 237.562L193.259 202.192ZM176.996 202.199C181.485 197.706 188.767 197.703 193.259 202.192L157.919 237.562C172.96 252.591 197.337 252.581 212.366 237.539L176.996 202.199ZM262.873 116.249L176.996 202.199L212.366 237.539L298.244 151.59L262.873 116.249Z" fill="#FF6915" mask="url(#path-1-outside-1_64_780)"/>
</g>
<defs>
<filter id="filter0_d_64_780" x="0.989258" y="0" width="312.52" height="256.827" filterUnits="userSpaceOnUse" color-interpolation-filters="sRGB">
<feFlood flood-opacity="0" result="BackgroundImageFix"/>
<feColorMatrix in="SourceAlpha" type="matrix" values="0 0 0 0 0 0 0 0 0 0 0 0 0 0 0 0 0 0 127 0" result="hardAlpha"/>
<feOffset dy="4"/>
<feGaussianBlur stdDeviation="2"/>
<feComposite in2="hardAlpha" operator="out"/>
<feColorMatrix type="matrix" values="0 0 0 0 0 0 0 0 0 0 0 0 0 0 0 0 0 0 0.25 0"/>
<feBlend mode="normal" in2="BackgroundImageFix" result="effect1_dropShadow_64_780"/>
<feBlend mode="normal" in="SourceGraphic" in2="effect1_dropShadow_64_780" result="shape"/>
</filter>
</defs>
</svg>
